%TF.GenerationSoftware,KiCad,Pcbnew,10.0.1*%
%TF.CreationDate,2026-04-26T21:41:19+02:00*%
%TF.ProjectId,requena.abanto_projecte_vidres,72657175-656e-4612-9e61-62616e746f5f,rev?*%
%TF.SameCoordinates,Original*%
%TF.FileFunction,Legend,Bot*%
%TF.FilePolarity,Positive*%
%FSLAX46Y46*%
G04 Gerber Fmt 4.6, Leading zero omitted, Abs format (unit mm)*
G04 Created by KiCad (PCBNEW 10.0.1) date 2026-04-26 21:41:19*
%MOMM*%
%LPD*%
G01*
G04 APERTURE LIST*
%ADD10C,0.150000*%
%ADD11C,0.120000*%
G04 APERTURE END LIST*
D10*
X126647857Y-53684580D02*
X126695476Y-53732200D01*
X126695476Y-53732200D02*
X126838333Y-53779819D01*
X126838333Y-53779819D02*
X126933571Y-53779819D01*
X126933571Y-53779819D02*
X127076428Y-53732200D01*
X127076428Y-53732200D02*
X127171666Y-53636961D01*
X127171666Y-53636961D02*
X127219285Y-53541723D01*
X127219285Y-53541723D02*
X127266904Y-53351247D01*
X127266904Y-53351247D02*
X127266904Y-53208390D01*
X127266904Y-53208390D02*
X127219285Y-53017914D01*
X127219285Y-53017914D02*
X127171666Y-52922676D01*
X127171666Y-52922676D02*
X127076428Y-52827438D01*
X127076428Y-52827438D02*
X126933571Y-52779819D01*
X126933571Y-52779819D02*
X126838333Y-52779819D01*
X126838333Y-52779819D02*
X126695476Y-52827438D01*
X126695476Y-52827438D02*
X126647857Y-52875057D01*
X126266904Y-52875057D02*
X126219285Y-52827438D01*
X126219285Y-52827438D02*
X126124047Y-52779819D01*
X126124047Y-52779819D02*
X125885952Y-52779819D01*
X125885952Y-52779819D02*
X125790714Y-52827438D01*
X125790714Y-52827438D02*
X125743095Y-52875057D01*
X125743095Y-52875057D02*
X125695476Y-52970295D01*
X125695476Y-52970295D02*
X125695476Y-53065533D01*
X125695476Y-53065533D02*
X125743095Y-53208390D01*
X125743095Y-53208390D02*
X126314523Y-53779819D01*
X126314523Y-53779819D02*
X125695476Y-53779819D01*
X124790714Y-52779819D02*
X125266904Y-52779819D01*
X125266904Y-52779819D02*
X125314523Y-53256009D01*
X125314523Y-53256009D02*
X125266904Y-53208390D01*
X125266904Y-53208390D02*
X125171666Y-53160771D01*
X125171666Y-53160771D02*
X124933571Y-53160771D01*
X124933571Y-53160771D02*
X124838333Y-53208390D01*
X124838333Y-53208390D02*
X124790714Y-53256009D01*
X124790714Y-53256009D02*
X124743095Y-53351247D01*
X124743095Y-53351247D02*
X124743095Y-53589342D01*
X124743095Y-53589342D02*
X124790714Y-53684580D01*
X124790714Y-53684580D02*
X124838333Y-53732200D01*
X124838333Y-53732200D02*
X124933571Y-53779819D01*
X124933571Y-53779819D02*
X125171666Y-53779819D01*
X125171666Y-53779819D02*
X125266904Y-53732200D01*
X125266904Y-53732200D02*
X125314523Y-53684580D01*
X190539580Y-86127142D02*
X190587200Y-86079523D01*
X190587200Y-86079523D02*
X190634819Y-85936666D01*
X190634819Y-85936666D02*
X190634819Y-85841428D01*
X190634819Y-85841428D02*
X190587200Y-85698571D01*
X190587200Y-85698571D02*
X190491961Y-85603333D01*
X190491961Y-85603333D02*
X190396723Y-85555714D01*
X190396723Y-85555714D02*
X190206247Y-85508095D01*
X190206247Y-85508095D02*
X190063390Y-85508095D01*
X190063390Y-85508095D02*
X189872914Y-85555714D01*
X189872914Y-85555714D02*
X189777676Y-85603333D01*
X189777676Y-85603333D02*
X189682438Y-85698571D01*
X189682438Y-85698571D02*
X189634819Y-85841428D01*
X189634819Y-85841428D02*
X189634819Y-85936666D01*
X189634819Y-85936666D02*
X189682438Y-86079523D01*
X189682438Y-86079523D02*
X189730057Y-86127142D01*
X189634819Y-86460476D02*
X189634819Y-87079523D01*
X189634819Y-87079523D02*
X190015771Y-86746190D01*
X190015771Y-86746190D02*
X190015771Y-86889047D01*
X190015771Y-86889047D02*
X190063390Y-86984285D01*
X190063390Y-86984285D02*
X190111009Y-87031904D01*
X190111009Y-87031904D02*
X190206247Y-87079523D01*
X190206247Y-87079523D02*
X190444342Y-87079523D01*
X190444342Y-87079523D02*
X190539580Y-87031904D01*
X190539580Y-87031904D02*
X190587200Y-86984285D01*
X190587200Y-86984285D02*
X190634819Y-86889047D01*
X190634819Y-86889047D02*
X190634819Y-86603333D01*
X190634819Y-86603333D02*
X190587200Y-86508095D01*
X190587200Y-86508095D02*
X190539580Y-86460476D01*
X189634819Y-87936666D02*
X189634819Y-87746190D01*
X189634819Y-87746190D02*
X189682438Y-87650952D01*
X189682438Y-87650952D02*
X189730057Y-87603333D01*
X189730057Y-87603333D02*
X189872914Y-87508095D01*
X189872914Y-87508095D02*
X190063390Y-87460476D01*
X190063390Y-87460476D02*
X190444342Y-87460476D01*
X190444342Y-87460476D02*
X190539580Y-87508095D01*
X190539580Y-87508095D02*
X190587200Y-87555714D01*
X190587200Y-87555714D02*
X190634819Y-87650952D01*
X190634819Y-87650952D02*
X190634819Y-87841428D01*
X190634819Y-87841428D02*
X190587200Y-87936666D01*
X190587200Y-87936666D02*
X190539580Y-87984285D01*
X190539580Y-87984285D02*
X190444342Y-88031904D01*
X190444342Y-88031904D02*
X190206247Y-88031904D01*
X190206247Y-88031904D02*
X190111009Y-87984285D01*
X190111009Y-87984285D02*
X190063390Y-87936666D01*
X190063390Y-87936666D02*
X190015771Y-87841428D01*
X190015771Y-87841428D02*
X190015771Y-87650952D01*
X190015771Y-87650952D02*
X190063390Y-87555714D01*
X190063390Y-87555714D02*
X190111009Y-87508095D01*
X190111009Y-87508095D02*
X190206247Y-87460476D01*
X193461543Y-79330143D02*
X193509163Y-79282524D01*
X193509163Y-79282524D02*
X193556782Y-79139667D01*
X193556782Y-79139667D02*
X193556782Y-79044429D01*
X193556782Y-79044429D02*
X193509163Y-78901572D01*
X193509163Y-78901572D02*
X193413924Y-78806334D01*
X193413924Y-78806334D02*
X193318686Y-78758715D01*
X193318686Y-78758715D02*
X193128210Y-78711096D01*
X193128210Y-78711096D02*
X192985353Y-78711096D01*
X192985353Y-78711096D02*
X192794877Y-78758715D01*
X192794877Y-78758715D02*
X192699639Y-78806334D01*
X192699639Y-78806334D02*
X192604401Y-78901572D01*
X192604401Y-78901572D02*
X192556782Y-79044429D01*
X192556782Y-79044429D02*
X192556782Y-79139667D01*
X192556782Y-79139667D02*
X192604401Y-79282524D01*
X192604401Y-79282524D02*
X192652020Y-79330143D01*
X192556782Y-79663477D02*
X192556782Y-80282524D01*
X192556782Y-80282524D02*
X192937734Y-79949191D01*
X192937734Y-79949191D02*
X192937734Y-80092048D01*
X192937734Y-80092048D02*
X192985353Y-80187286D01*
X192985353Y-80187286D02*
X193032972Y-80234905D01*
X193032972Y-80234905D02*
X193128210Y-80282524D01*
X193128210Y-80282524D02*
X193366305Y-80282524D01*
X193366305Y-80282524D02*
X193461543Y-80234905D01*
X193461543Y-80234905D02*
X193509163Y-80187286D01*
X193509163Y-80187286D02*
X193556782Y-80092048D01*
X193556782Y-80092048D02*
X193556782Y-79806334D01*
X193556782Y-79806334D02*
X193509163Y-79711096D01*
X193509163Y-79711096D02*
X193461543Y-79663477D01*
X192556782Y-81187286D02*
X192556782Y-80711096D01*
X192556782Y-80711096D02*
X193032972Y-80663477D01*
X193032972Y-80663477D02*
X192985353Y-80711096D01*
X192985353Y-80711096D02*
X192937734Y-80806334D01*
X192937734Y-80806334D02*
X192937734Y-81044429D01*
X192937734Y-81044429D02*
X192985353Y-81139667D01*
X192985353Y-81139667D02*
X193032972Y-81187286D01*
X193032972Y-81187286D02*
X193128210Y-81234905D01*
X193128210Y-81234905D02*
X193366305Y-81234905D01*
X193366305Y-81234905D02*
X193461543Y-81187286D01*
X193461543Y-81187286D02*
X193509163Y-81139667D01*
X193509163Y-81139667D02*
X193556782Y-81044429D01*
X193556782Y-81044429D02*
X193556782Y-80806334D01*
X193556782Y-80806334D02*
X193509163Y-80711096D01*
X193509163Y-80711096D02*
X193461543Y-80663477D01*
X160502857Y-93149580D02*
X160550476Y-93197200D01*
X160550476Y-93197200D02*
X160693333Y-93244819D01*
X160693333Y-93244819D02*
X160788571Y-93244819D01*
X160788571Y-93244819D02*
X160931428Y-93197200D01*
X160931428Y-93197200D02*
X161026666Y-93101961D01*
X161026666Y-93101961D02*
X161074285Y-93006723D01*
X161074285Y-93006723D02*
X161121904Y-92816247D01*
X161121904Y-92816247D02*
X161121904Y-92673390D01*
X161121904Y-92673390D02*
X161074285Y-92482914D01*
X161074285Y-92482914D02*
X161026666Y-92387676D01*
X161026666Y-92387676D02*
X160931428Y-92292438D01*
X160931428Y-92292438D02*
X160788571Y-92244819D01*
X160788571Y-92244819D02*
X160693333Y-92244819D01*
X160693333Y-92244819D02*
X160550476Y-92292438D01*
X160550476Y-92292438D02*
X160502857Y-92340057D01*
X160121904Y-92340057D02*
X160074285Y-92292438D01*
X160074285Y-92292438D02*
X159979047Y-92244819D01*
X159979047Y-92244819D02*
X159740952Y-92244819D01*
X159740952Y-92244819D02*
X159645714Y-92292438D01*
X159645714Y-92292438D02*
X159598095Y-92340057D01*
X159598095Y-92340057D02*
X159550476Y-92435295D01*
X159550476Y-92435295D02*
X159550476Y-92530533D01*
X159550476Y-92530533D02*
X159598095Y-92673390D01*
X159598095Y-92673390D02*
X160169523Y-93244819D01*
X160169523Y-93244819D02*
X159550476Y-93244819D01*
X158598095Y-93244819D02*
X159169523Y-93244819D01*
X158883809Y-93244819D02*
X158883809Y-92244819D01*
X158883809Y-92244819D02*
X158979047Y-92387676D01*
X158979047Y-92387676D02*
X159074285Y-92482914D01*
X159074285Y-92482914D02*
X159169523Y-92530533D01*
X196289580Y-82897142D02*
X196337200Y-82849523D01*
X196337200Y-82849523D02*
X196384819Y-82706666D01*
X196384819Y-82706666D02*
X196384819Y-82611428D01*
X196384819Y-82611428D02*
X196337200Y-82468571D01*
X196337200Y-82468571D02*
X196241961Y-82373333D01*
X196241961Y-82373333D02*
X196146723Y-82325714D01*
X196146723Y-82325714D02*
X195956247Y-82278095D01*
X195956247Y-82278095D02*
X195813390Y-82278095D01*
X195813390Y-82278095D02*
X195622914Y-82325714D01*
X195622914Y-82325714D02*
X195527676Y-82373333D01*
X195527676Y-82373333D02*
X195432438Y-82468571D01*
X195432438Y-82468571D02*
X195384819Y-82611428D01*
X195384819Y-82611428D02*
X195384819Y-82706666D01*
X195384819Y-82706666D02*
X195432438Y-82849523D01*
X195432438Y-82849523D02*
X195480057Y-82897142D01*
X195384819Y-83230476D02*
X195384819Y-83849523D01*
X195384819Y-83849523D02*
X195765771Y-83516190D01*
X195765771Y-83516190D02*
X195765771Y-83659047D01*
X195765771Y-83659047D02*
X195813390Y-83754285D01*
X195813390Y-83754285D02*
X195861009Y-83801904D01*
X195861009Y-83801904D02*
X195956247Y-83849523D01*
X195956247Y-83849523D02*
X196194342Y-83849523D01*
X196194342Y-83849523D02*
X196289580Y-83801904D01*
X196289580Y-83801904D02*
X196337200Y-83754285D01*
X196337200Y-83754285D02*
X196384819Y-83659047D01*
X196384819Y-83659047D02*
X196384819Y-83373333D01*
X196384819Y-83373333D02*
X196337200Y-83278095D01*
X196337200Y-83278095D02*
X196289580Y-83230476D01*
X195718152Y-84706666D02*
X196384819Y-84706666D01*
X195337200Y-84468571D02*
X196051485Y-84230476D01*
X196051485Y-84230476D02*
X196051485Y-84849523D01*
X116009580Y-50008333D02*
X116057200Y-49960714D01*
X116057200Y-49960714D02*
X116104819Y-49817857D01*
X116104819Y-49817857D02*
X116104819Y-49722619D01*
X116104819Y-49722619D02*
X116057200Y-49579762D01*
X116057200Y-49579762D02*
X115961961Y-49484524D01*
X115961961Y-49484524D02*
X115866723Y-49436905D01*
X115866723Y-49436905D02*
X115676247Y-49389286D01*
X115676247Y-49389286D02*
X115533390Y-49389286D01*
X115533390Y-49389286D02*
X115342914Y-49436905D01*
X115342914Y-49436905D02*
X115247676Y-49484524D01*
X115247676Y-49484524D02*
X115152438Y-49579762D01*
X115152438Y-49579762D02*
X115104819Y-49722619D01*
X115104819Y-49722619D02*
X115104819Y-49817857D01*
X115104819Y-49817857D02*
X115152438Y-49960714D01*
X115152438Y-49960714D02*
X115200057Y-50008333D01*
X115104819Y-50865476D02*
X115104819Y-50675000D01*
X115104819Y-50675000D02*
X115152438Y-50579762D01*
X115152438Y-50579762D02*
X115200057Y-50532143D01*
X115200057Y-50532143D02*
X115342914Y-50436905D01*
X115342914Y-50436905D02*
X115533390Y-50389286D01*
X115533390Y-50389286D02*
X115914342Y-50389286D01*
X115914342Y-50389286D02*
X116009580Y-50436905D01*
X116009580Y-50436905D02*
X116057200Y-50484524D01*
X116057200Y-50484524D02*
X116104819Y-50579762D01*
X116104819Y-50579762D02*
X116104819Y-50770238D01*
X116104819Y-50770238D02*
X116057200Y-50865476D01*
X116057200Y-50865476D02*
X116009580Y-50913095D01*
X116009580Y-50913095D02*
X115914342Y-50960714D01*
X115914342Y-50960714D02*
X115676247Y-50960714D01*
X115676247Y-50960714D02*
X115581009Y-50913095D01*
X115581009Y-50913095D02*
X115533390Y-50865476D01*
X115533390Y-50865476D02*
X115485771Y-50770238D01*
X115485771Y-50770238D02*
X115485771Y-50579762D01*
X115485771Y-50579762D02*
X115533390Y-50484524D01*
X115533390Y-50484524D02*
X115581009Y-50436905D01*
X115581009Y-50436905D02*
X115676247Y-50389286D01*
X187727080Y-86102142D02*
X187774700Y-86054523D01*
X187774700Y-86054523D02*
X187822319Y-85911666D01*
X187822319Y-85911666D02*
X187822319Y-85816428D01*
X187822319Y-85816428D02*
X187774700Y-85673571D01*
X187774700Y-85673571D02*
X187679461Y-85578333D01*
X187679461Y-85578333D02*
X187584223Y-85530714D01*
X187584223Y-85530714D02*
X187393747Y-85483095D01*
X187393747Y-85483095D02*
X187250890Y-85483095D01*
X187250890Y-85483095D02*
X187060414Y-85530714D01*
X187060414Y-85530714D02*
X186965176Y-85578333D01*
X186965176Y-85578333D02*
X186869938Y-85673571D01*
X186869938Y-85673571D02*
X186822319Y-85816428D01*
X186822319Y-85816428D02*
X186822319Y-85911666D01*
X186822319Y-85911666D02*
X186869938Y-86054523D01*
X186869938Y-86054523D02*
X186917557Y-86102142D01*
X186822319Y-86435476D02*
X186822319Y-87054523D01*
X186822319Y-87054523D02*
X187203271Y-86721190D01*
X187203271Y-86721190D02*
X187203271Y-86864047D01*
X187203271Y-86864047D02*
X187250890Y-86959285D01*
X187250890Y-86959285D02*
X187298509Y-87006904D01*
X187298509Y-87006904D02*
X187393747Y-87054523D01*
X187393747Y-87054523D02*
X187631842Y-87054523D01*
X187631842Y-87054523D02*
X187727080Y-87006904D01*
X187727080Y-87006904D02*
X187774700Y-86959285D01*
X187774700Y-86959285D02*
X187822319Y-86864047D01*
X187822319Y-86864047D02*
X187822319Y-86578333D01*
X187822319Y-86578333D02*
X187774700Y-86483095D01*
X187774700Y-86483095D02*
X187727080Y-86435476D01*
X186822319Y-87387857D02*
X186822319Y-88054523D01*
X186822319Y-88054523D02*
X187822319Y-87625952D01*
X157052857Y-82039580D02*
X157100476Y-82087200D01*
X157100476Y-82087200D02*
X157243333Y-82134819D01*
X157243333Y-82134819D02*
X157338571Y-82134819D01*
X157338571Y-82134819D02*
X157481428Y-82087200D01*
X157481428Y-82087200D02*
X157576666Y-81991961D01*
X157576666Y-81991961D02*
X157624285Y-81896723D01*
X157624285Y-81896723D02*
X157671904Y-81706247D01*
X157671904Y-81706247D02*
X157671904Y-81563390D01*
X157671904Y-81563390D02*
X157624285Y-81372914D01*
X157624285Y-81372914D02*
X157576666Y-81277676D01*
X157576666Y-81277676D02*
X157481428Y-81182438D01*
X157481428Y-81182438D02*
X157338571Y-81134819D01*
X157338571Y-81134819D02*
X157243333Y-81134819D01*
X157243333Y-81134819D02*
X157100476Y-81182438D01*
X157100476Y-81182438D02*
X157052857Y-81230057D01*
X156100476Y-82134819D02*
X156671904Y-82134819D01*
X156386190Y-82134819D02*
X156386190Y-81134819D01*
X156386190Y-81134819D02*
X156481428Y-81277676D01*
X156481428Y-81277676D02*
X156576666Y-81372914D01*
X156576666Y-81372914D02*
X156671904Y-81420533D01*
X155529047Y-81563390D02*
X155624285Y-81515771D01*
X155624285Y-81515771D02*
X155671904Y-81468152D01*
X155671904Y-81468152D02*
X155719523Y-81372914D01*
X155719523Y-81372914D02*
X155719523Y-81325295D01*
X155719523Y-81325295D02*
X155671904Y-81230057D01*
X155671904Y-81230057D02*
X155624285Y-81182438D01*
X155624285Y-81182438D02*
X155529047Y-81134819D01*
X155529047Y-81134819D02*
X155338571Y-81134819D01*
X155338571Y-81134819D02*
X155243333Y-81182438D01*
X155243333Y-81182438D02*
X155195714Y-81230057D01*
X155195714Y-81230057D02*
X155148095Y-81325295D01*
X155148095Y-81325295D02*
X155148095Y-81372914D01*
X155148095Y-81372914D02*
X155195714Y-81468152D01*
X155195714Y-81468152D02*
X155243333Y-81515771D01*
X155243333Y-81515771D02*
X155338571Y-81563390D01*
X155338571Y-81563390D02*
X155529047Y-81563390D01*
X155529047Y-81563390D02*
X155624285Y-81611009D01*
X155624285Y-81611009D02*
X155671904Y-81658628D01*
X155671904Y-81658628D02*
X155719523Y-81753866D01*
X155719523Y-81753866D02*
X155719523Y-81944342D01*
X155719523Y-81944342D02*
X155671904Y-82039580D01*
X155671904Y-82039580D02*
X155624285Y-82087200D01*
X155624285Y-82087200D02*
X155529047Y-82134819D01*
X155529047Y-82134819D02*
X155338571Y-82134819D01*
X155338571Y-82134819D02*
X155243333Y-82087200D01*
X155243333Y-82087200D02*
X155195714Y-82039580D01*
X155195714Y-82039580D02*
X155148095Y-81944342D01*
X155148095Y-81944342D02*
X155148095Y-81753866D01*
X155148095Y-81753866D02*
X155195714Y-81658628D01*
X155195714Y-81658628D02*
X155243333Y-81611009D01*
X155243333Y-81611009D02*
X155338571Y-81563390D01*
X157342857Y-74339580D02*
X157390476Y-74387200D01*
X157390476Y-74387200D02*
X157533333Y-74434819D01*
X157533333Y-74434819D02*
X157628571Y-74434819D01*
X157628571Y-74434819D02*
X157771428Y-74387200D01*
X157771428Y-74387200D02*
X157866666Y-74291961D01*
X157866666Y-74291961D02*
X157914285Y-74196723D01*
X157914285Y-74196723D02*
X157961904Y-74006247D01*
X157961904Y-74006247D02*
X157961904Y-73863390D01*
X157961904Y-73863390D02*
X157914285Y-73672914D01*
X157914285Y-73672914D02*
X157866666Y-73577676D01*
X157866666Y-73577676D02*
X157771428Y-73482438D01*
X157771428Y-73482438D02*
X157628571Y-73434819D01*
X157628571Y-73434819D02*
X157533333Y-73434819D01*
X157533333Y-73434819D02*
X157390476Y-73482438D01*
X157390476Y-73482438D02*
X157342857Y-73530057D01*
X156390476Y-74434819D02*
X156961904Y-74434819D01*
X156676190Y-74434819D02*
X156676190Y-73434819D01*
X156676190Y-73434819D02*
X156771428Y-73577676D01*
X156771428Y-73577676D02*
X156866666Y-73672914D01*
X156866666Y-73672914D02*
X156961904Y-73720533D01*
X155914285Y-74434819D02*
X155723809Y-74434819D01*
X155723809Y-74434819D02*
X155628571Y-74387200D01*
X155628571Y-74387200D02*
X155580952Y-74339580D01*
X155580952Y-74339580D02*
X155485714Y-74196723D01*
X155485714Y-74196723D02*
X155438095Y-74006247D01*
X155438095Y-74006247D02*
X155438095Y-73625295D01*
X155438095Y-73625295D02*
X155485714Y-73530057D01*
X155485714Y-73530057D02*
X155533333Y-73482438D01*
X155533333Y-73482438D02*
X155628571Y-73434819D01*
X155628571Y-73434819D02*
X155819047Y-73434819D01*
X155819047Y-73434819D02*
X155914285Y-73482438D01*
X155914285Y-73482438D02*
X155961904Y-73530057D01*
X155961904Y-73530057D02*
X156009523Y-73625295D01*
X156009523Y-73625295D02*
X156009523Y-73863390D01*
X156009523Y-73863390D02*
X155961904Y-73958628D01*
X155961904Y-73958628D02*
X155914285Y-74006247D01*
X155914285Y-74006247D02*
X155819047Y-74053866D01*
X155819047Y-74053866D02*
X155628571Y-74053866D01*
X155628571Y-74053866D02*
X155533333Y-74006247D01*
X155533333Y-74006247D02*
X155485714Y-73958628D01*
X155485714Y-73958628D02*
X155438095Y-73863390D01*
%TO.C,C25*%
D11*
X126145580Y-54245000D02*
X125864420Y-54245000D01*
X126145580Y-55265000D02*
X125864420Y-55265000D01*
%TO.C,C36*%
X188240000Y-86910580D02*
X188240000Y-86629420D01*
X189260000Y-86910580D02*
X189260000Y-86629420D01*
%TO.C,C35*%
X194021963Y-79832421D02*
X194021963Y-80113581D01*
X195041963Y-79832421D02*
X195041963Y-80113581D01*
%TO.C,C21*%
X159719420Y-90850000D02*
X160000580Y-90850000D01*
X159719420Y-91870000D02*
X160000580Y-91870000D01*
%TO.C,C34*%
X193990000Y-83680580D02*
X193990000Y-83399420D01*
X195010000Y-83680580D02*
X195010000Y-83399420D01*
%TO.C,C6*%
X116570000Y-50034420D02*
X116570000Y-50315580D01*
X117590000Y-50034420D02*
X117590000Y-50315580D01*
%TO.C,C37*%
X185427500Y-86885580D02*
X185427500Y-86604420D01*
X186447500Y-86885580D02*
X186447500Y-86604420D01*
%TO.C,C18*%
X156269420Y-79740000D02*
X156550580Y-79740000D01*
X156269420Y-80760000D02*
X156550580Y-80760000D01*
%TO.C,C19*%
X156840580Y-74900000D02*
X156559420Y-74900000D01*
X156840580Y-75920000D02*
X156559420Y-75920000D01*
%TD*%
M02*
