M48
; DRILL file KiCad 10.0.1 date 2026-04-26T21:41:27
; FORMAT={-:-/ absolute / metric / decimal}
; #@! TF.CreationDate,2026-04-26T21:41:27+02:00
; #@! TF.GenerationSoftware,Kicad,Pcbnew,10.0.1
; #@! TF.FileFunction,Plated,1,4,PTH
FMAT,2
METRIC
; #@! TA.AperFunction,Plated,PTH,ViaDrill
T1C0.300
; #@! TA.AperFunction,Plated,PTH,ComponentDrill
T2C0.600
; #@! TA.AperFunction,Plated,PTH,ComponentDrill
T3C0.800
; #@! TA.AperFunction,Plated,PTH,ComponentDrill
T4C0.900
; #@! TA.AperFunction,Plated,PTH,ComponentDrill
T5C1.000
; #@! TA.AperFunction,Plated,PTH,ComponentDrill
T6C1.100
; #@! TA.AperFunction,Plated,PTH,ComponentDrill
T7C1.200
; #@! TA.AperFunction,Plated,PTH,ComponentDrill
T8C1.600
%
G90
G05
T1
X105.4Y-47.07
X106.66Y-48.31
X108.027Y-98.29
X108.027Y-99.56
X109.297Y-98.29
X109.297Y-99.56
X110.567Y-98.29
X110.567Y-99.56
X111.837Y-98.29
X111.837Y-99.56
X112.35Y-62.84
X112.36Y-63.79
X112.37Y-64.86
X112.377Y-41.32
X112.39Y-61.09
X112.39Y-61.88
X112.667Y-73.18
X113.108Y-98.29
X113.108Y-99.56
X113.33Y-62.85
X113.34Y-63.8
X113.35Y-64.87
X113.37Y-61.1
X113.37Y-61.89
X114.377Y-98.29
X114.377Y-99.56
X114.89Y-49.77
X115.328Y-73.18
X115.647Y-98.29
X115.647Y-99.56
X115.97Y-49.42
X116.11Y-50.95
X116.837Y-94.675
X116.852Y-97.17
X116.917Y-98.29
X116.917Y-99.56
X116.98Y-47.71
X117.95Y-49.4
X118.03Y-64.79
X118.04Y-62.86
X118.04Y-63.8
X118.05Y-50.94
X118.05Y-61.02
X118.05Y-61.95
X118.6Y-48.87
X119.01Y-64.8
X119.02Y-62.86
X119.02Y-63.81
X119.03Y-61.03
X119.03Y-61.96
X120.135Y-50.51
X121.207Y-100.99
X121.232Y-103.64
X122.06Y-50.5
X122.872Y-86.51
X122.93Y-49.41
X125.275Y-53.795
X125.305Y-55.745
X125.567Y-86.56
X126.78Y-55.785
X126.79Y-53.765
X127.453Y-78.748
X127.54Y-94.257
X127.55Y-86.257
X127.96Y-70.748
X129.0Y-84.8
X129.0Y-95.79
X129.03Y-69.57
X129.03Y-80.314
X129.08Y-100.46
X129.08Y-111.29
X130.218Y-81.08
X130.218Y-84.18
X130.24Y-68.42
X130.257Y-65.89
X130.47Y-96.86
X130.47Y-99.94
X135.33Y-97.45
X136.68Y-86.35
X136.73Y-94.34
X138.16Y-95.8
X138.27Y-100.36
X138.27Y-111.31
X138.3Y-84.832
X139.585Y-96.1
X139.585Y-99.245
X139.778Y-81.192
X139.778Y-84.302
X143.95Y-97.73
X144.87Y-76.08
X144.87Y-77.09
X144.88Y-78.07
X148.032Y-93.82
X148.035Y-90.7
X148.052Y-103.78
X148.052Y-106.87
X149.382Y-70.51
X149.382Y-73.485
X151.15Y-82.69
X152.04Y-99.66
X155.62Y-81.2
X155.635Y-79.4
X155.92Y-74.5
X155.92Y-76.29
X155.97Y-73.233
X155.98Y-82.13
X155.98Y-84.81
X156.71Y-70.76
X156.78Y-82.13
X156.8Y-84.797
X156.801Y-73.213
X157.18Y-79.36
X157.2Y-81.21
X157.47Y-74.51
X157.47Y-76.27
X158.4Y-84.92
X158.737Y-70.14
X159.085Y-90.4
X159.085Y-92.272
X159.87Y-87.36
X159.88Y-90.17
X160.15Y-70.14
X161.112Y-73.68
X161.13Y-67.64
X161.132Y-76.08
X161.14Y-87.41
X161.15Y-90.16
X161.33Y-77.73
X161.63Y-91.36
X162.463Y-72.2
X163.33Y-96.742
X163.572Y-77.742
X163.94Y-71.89
X164.72Y-73.41
X165.069Y-79.941
X165.35Y-89.93
X165.88Y-79.72
X166.08Y-73.05
X166.34Y-96.73
X166.59Y-79.06
X168.29Y-72.75
X168.46Y-78.96
X168.82Y-70.75
X169.9Y-72.79
X170.22Y-78.9
X171.75Y-65.55
X172.94Y-78.7
X172.98Y-73.44
X173.11Y-75.28
X173.11Y-76.87
X184.37Y-70.49
X184.47Y-72.86
X184.48Y-73.98
X184.62Y-76.41
X184.9Y-68.85
X185.007Y-87.525
X185.088Y-85.975
X186.17Y-83.925
X186.26Y-67.94
X186.295Y-79.361
X186.37Y-81.845
X186.797Y-85.965
X186.822Y-87.52
X186.87Y-83.925
X187.485Y-80.611
X187.88Y-85.98
X187.91Y-87.56
X188.3Y-68.78
X188.69Y-79.425
X188.7Y-81.815
X189.61Y-87.55
X189.62Y-86.01
X189.87Y-75.585
X189.98Y-69.77
X190.03Y-72.8
X190.05Y-74.055
X190.08Y-71.18
X191.102Y-79.299
X191.233Y-80.871
X192.2Y-75.078
X193.24Y-90.765
X193.45Y-84.3
X193.61Y-80.746
X194.485Y-94.191
X194.5Y-81.78
X194.53Y-78.22
X194.56Y-66.251
X195.47Y-84.3
X195.506Y-80.78
X197.725Y-94.17
X197.84Y-66.251
X201.31Y-77.115
X201.315Y-80.43
X201.35Y-81.625
X201.355Y-84.705
T2
X112.647Y-102.1
X112.647Y-103.6
X114.677Y-79.21
X114.677Y-80.71
X117.938Y-85.56
X119.438Y-85.56
X120.53Y-93.26
X120.53Y-94.76
X136.62Y-49.48
X138.12Y-49.48
T3
X110.92Y-109.4
X113.46Y-109.4
X116.19Y-37.57
X116.19Y-40.11
X118.11Y-55.75
X118.69Y-109.42
X120.65Y-55.75
X121.23Y-109.42
X124.68Y-93.49
X124.68Y-96.03
X138.53Y-64.62
X138.53Y-67.16
X144.498Y-68.042
X146.294Y-66.246
X151.146Y-67.274
X152.942Y-65.478
X167.448Y-66.527
X169.75Y-67.6
X173.251Y-68.825
X175.553Y-69.898
X177.09Y-97.16
X177.63Y-65.25
X178.886Y-98.956
X179.854Y-93.484
X180.17Y-65.25
X181.65Y-95.28
T4
X110.72Y-85.58
X113.26Y-85.58
T5
X128.498Y-41.99
X128.498Y-44.53
X128.498Y-47.07
X128.498Y-49.61
X128.498Y-52.15
X128.498Y-54.69
X128.498Y-57.23
X133.577Y-40.72
X133.577Y-43.26
X133.577Y-45.8
X133.577Y-48.34
X133.577Y-50.88
X133.577Y-53.42
X133.577Y-55.96
X133.577Y-58.5
X154.19Y-100.485
X155.575Y-103.025
X156.96Y-100.485
X158.345Y-103.025
X159.73Y-100.485
X161.115Y-103.025
X162.5Y-100.485
X163.885Y-103.025
X165.27Y-100.485
X167.68Y-85.59
X170.22Y-85.59
X172.76Y-85.59
X177.71Y-75.44
X177.71Y-77.98
X177.71Y-80.52
X177.71Y-83.06
X177.71Y-85.6
X186.58Y-100.495
X187.965Y-103.035
X189.35Y-100.495
X190.735Y-103.035
X192.12Y-100.495
X193.505Y-103.035
X194.89Y-100.495
X196.275Y-103.035
X197.66Y-100.495
T6
X107.718Y-69.05
X107.718Y-81.75
X122.207Y-71.18
X122.207Y-73.72
X122.207Y-76.26
X151.267Y-34.97
X156.347Y-34.97
X180.007Y-35.01
X185.088Y-35.01
T7
X106.515Y-62.395
X106.515Y-64.935
T8
X144.347Y-43.91
X144.347Y-59.15
X150.287Y-43.91
X150.287Y-59.15
X157.567Y-43.95
X157.567Y-59.19
X163.867Y-44.0
X163.867Y-59.24
X172.438Y-44.26
X172.438Y-59.5
X178.377Y-44.32
X178.377Y-59.56
X186.317Y-44.325
X186.317Y-59.565
X192.167Y-44.42
X192.167Y-59.66
M30
