%TF.GenerationSoftware,KiCad,Pcbnew,10.0.1*%
%TF.CreationDate,2026-04-26T21:41:19+02:00*%
%TF.ProjectId,requena.abanto_projecte_vidres,72657175-656e-4612-9e61-62616e746f5f,rev?*%
%TF.SameCoordinates,Original*%
%TF.FileFunction,Soldermask,Top*%
%TF.FilePolarity,Negative*%
%FSLAX46Y46*%
G04 Gerber Fmt 4.6, Leading zero omitted, Abs format (unit mm)*
G04 Created by KiCad (PCBNEW 10.0.1) date 2026-04-26 21:41:19*
%MOMM*%
%LPD*%
G01*
G04 APERTURE LIST*
G04 Aperture macros list*
%AMRoundRect*
0 Rectangle with rounded corners*
0 $1 Rounding radius*
0 $2 $3 $4 $5 $6 $7 $8 $9 X,Y pos of 4 corners*
0 Add a 4 corners polygon primitive as box body*
4,1,4,$2,$3,$4,$5,$6,$7,$8,$9,$2,$3,0*
0 Add four circle primitives for the rounded corners*
1,1,$1+$1,$2,$3*
1,1,$1+$1,$4,$5*
1,1,$1+$1,$6,$7*
1,1,$1+$1,$8,$9*
0 Add four rect primitives between the rounded corners*
20,1,$1+$1,$2,$3,$4,$5,0*
20,1,$1+$1,$4,$5,$6,$7,0*
20,1,$1+$1,$6,$7,$8,$9,0*
20,1,$1+$1,$8,$9,$2,$3,0*%
G04 Aperture macros list end*
%ADD10RoundRect,0.250000X0.750000X-0.750000X0.750000X0.750000X-0.750000X0.750000X-0.750000X-0.750000X0*%
%ADD11C,2.000000*%
%ADD12RoundRect,0.243750X0.243750X0.456250X-0.243750X0.456250X-0.243750X-0.456250X0.243750X-0.456250X0*%
%ADD13RoundRect,0.150000X-0.150000X0.825000X-0.150000X-0.825000X0.150000X-0.825000X0.150000X0.825000X0*%
%ADD14RoundRect,0.250000X1.350000X-1.350000X1.350000X1.350000X-1.350000X1.350000X-1.350000X-1.350000X0*%
%ADD15C,3.200000*%
%ADD16R,1.400000X1.600000*%
%ADD17RoundRect,0.250000X-0.325000X-0.650000X0.325000X-0.650000X0.325000X0.650000X-0.325000X0.650000X0*%
%ADD18C,1.400000*%
%ADD19RoundRect,0.250000X0.650000X-0.325000X0.650000X0.325000X-0.650000X0.325000X-0.650000X-0.325000X0*%
%ADD20RoundRect,0.250000X0.350000X0.350000X-0.350000X0.350000X-0.350000X-0.350000X0.350000X-0.350000X0*%
%ADD21C,1.200000*%
%ADD22RoundRect,0.250000X0.312500X0.625000X-0.312500X0.625000X-0.312500X-0.625000X0.312500X-0.625000X0*%
%ADD23RoundRect,0.250000X0.325000X0.650000X-0.325000X0.650000X-0.325000X-0.650000X0.325000X-0.650000X0*%
%ADD24RoundRect,0.250000X0.850000X0.350000X-0.850000X0.350000X-0.850000X-0.350000X0.850000X-0.350000X0*%
%ADD25RoundRect,0.249997X2.950003X2.650003X-2.950003X2.650003X-2.950003X-2.650003X2.950003X-2.650003X0*%
%ADD26RoundRect,0.250000X-0.650000X0.325000X-0.650000X-0.325000X0.650000X-0.325000X0.650000X0.325000X0*%
%ADD27RoundRect,0.250000X-0.350000X0.350000X-0.350000X-0.350000X0.350000X-0.350000X0.350000X0.350000X0*%
%ADD28RoundRect,0.250000X0.625000X-0.312500X0.625000X0.312500X-0.625000X0.312500X-0.625000X-0.312500X0*%
%ADD29RoundRect,0.250000X-0.070711X-0.565685X0.565685X0.070711X0.070711X0.565685X-0.565685X-0.070711X0*%
%ADD30RoundRect,0.250000X-0.600000X-0.600000X0.600000X-0.600000X0.600000X0.600000X-0.600000X0.600000X0*%
%ADD31C,1.700000*%
%ADD32RoundRect,0.250000X-0.275000X-0.700000X0.275000X-0.700000X0.275000X0.700000X-0.275000X0.700000X0*%
%ADD33R,1.700000X1.700000*%
%ADD34RoundRect,0.250000X-0.625000X0.312500X-0.625000X-0.312500X0.625000X-0.312500X0.625000X0.312500X0*%
%ADD35RoundRect,0.250000X-0.250000X-0.475000X0.250000X-0.475000X0.250000X0.475000X-0.250000X0.475000X0*%
%ADD36RoundRect,0.137500X-0.600000X-0.137500X0.600000X-0.137500X0.600000X0.137500X-0.600000X0.137500X0*%
%ADD37RoundRect,0.137500X-0.137500X-0.600000X0.137500X-0.600000X0.137500X0.600000X-0.137500X0.600000X0*%
%ADD38R,0.800000X1.000000*%
%ADD39C,0.900000*%
%ADD40R,1.500000X0.700000*%
%ADD41RoundRect,0.250000X0.475000X-0.250000X0.475000X0.250000X-0.475000X0.250000X-0.475000X-0.250000X0*%
%ADD42R,1.600000X1.600000*%
%ADD43C,1.600000*%
%ADD44O,0.504000X1.054000*%
%ADD45O,1.054000X0.504000*%
%ADD46RoundRect,0.172700X1.554300X-1.554300X1.554300X1.554300X-1.554300X1.554300X-1.554300X-1.554300X0*%
%ADD47RoundRect,0.250000X-1.350000X1.350000X-1.350000X-1.350000X1.350000X-1.350000X1.350000X1.350000X0*%
%ADD48RoundRect,0.218750X-0.218750X-0.381250X0.218750X-0.381250X0.218750X0.381250X-0.218750X0.381250X0*%
%ADD49C,2.100000*%
%ADD50RoundRect,0.250000X-0.475000X0.250000X-0.475000X-0.250000X0.475000X-0.250000X0.475000X0.250000X0*%
%ADD51RoundRect,0.250000X-0.650000X-0.650000X0.650000X-0.650000X0.650000X0.650000X-0.650000X0.650000X0*%
%ADD52C,1.800000*%
%ADD53RoundRect,0.243600X-0.771400X0.901400X-0.771400X-0.901400X0.771400X-0.901400X0.771400X0.901400X0*%
%ADD54RoundRect,0.091200X-0.288800X0.608800X-0.288800X-0.608800X0.288800X-0.608800X0.288800X0.608800X0*%
%ADD55RoundRect,0.190000X-0.190000X0.510000X-0.190000X-0.510000X0.190000X-0.510000X0.190000X0.510000X0*%
%ADD56RoundRect,0.250000X-0.406586X0.053033X0.053033X-0.406586X0.406586X-0.053033X-0.053033X0.406586X0*%
%ADD57R,1.800000X1.800000*%
%ADD58RoundRect,0.225000X0.225000X0.250000X-0.225000X0.250000X-0.225000X-0.250000X0.225000X-0.250000X0*%
%ADD59RoundRect,0.102000X-0.825000X-0.825000X0.825000X-0.825000X0.825000X0.825000X-0.825000X0.825000X0*%
%ADD60C,1.854000*%
%ADD61RoundRect,0.249999X0.850001X-0.850001X0.850001X0.850001X-0.850001X0.850001X-0.850001X-0.850001X0*%
%ADD62C,2.200000*%
%ADD63RoundRect,0.250000X0.700000X-0.275000X0.700000X0.275000X-0.700000X0.275000X-0.700000X-0.275000X0*%
G04 APERTURE END LIST*
D10*
%TO.C,J5*%
X106515000Y-64935000D03*
D11*
X106515000Y-62395000D03*
%TD*%
D12*
%TO.C,D3*%
X143157500Y-75420000D03*
X141282500Y-75420000D03*
%TD*%
D13*
%TO.C,U3*%
X116187500Y-42745000D03*
X114917500Y-42745000D03*
X113647500Y-42745000D03*
X112377500Y-42745000D03*
X112377500Y-47695000D03*
X113647500Y-47695000D03*
X114917500Y-47695000D03*
X116187500Y-47695000D03*
%TD*%
D14*
%TO.C,D6*%
X178377500Y-59560000D03*
D15*
X178377500Y-44320000D03*
%TD*%
D16*
%TO.C,SW6*%
X129000000Y-94257500D03*
X129000000Y-86257500D03*
X133500000Y-94257500D03*
X133500000Y-86257500D03*
%TD*%
D17*
%TO.C,C20*%
X198405000Y-83155000D03*
X201355000Y-83155000D03*
%TD*%
D18*
%TO.C,UART_RX1*%
X177090000Y-97160000D03*
X178886051Y-98956051D03*
%TD*%
D19*
%TO.C,C28*%
X196080000Y-76480000D03*
X196080000Y-73530000D03*
%TD*%
D20*
%TO.C,C2*%
X138120100Y-49480000D03*
D21*
X136620100Y-49480000D03*
%TD*%
D18*
%TO.C,INB1*%
X151146117Y-67273884D03*
X152942168Y-65477833D03*
%TD*%
D22*
%TO.C,R7*%
X142702500Y-82750000D03*
X139777500Y-82750000D03*
%TD*%
D12*
%TO.C,D4*%
X148387500Y-75400000D03*
X146512500Y-75400000D03*
%TD*%
D23*
%TO.C,C26*%
X201315000Y-78755000D03*
X198365000Y-78755000D03*
%TD*%
D24*
%TO.C,U4*%
X116797500Y-95728350D03*
D25*
X110497500Y-93448350D03*
D24*
X116797500Y-91168350D03*
%TD*%
D22*
%TO.C,R12*%
X143922500Y-72150000D03*
X140997500Y-72150000D03*
%TD*%
D26*
%TO.C,C29*%
X196090000Y-91220000D03*
X196090000Y-94170000D03*
%TD*%
D27*
%TO.C,C4*%
X112647500Y-102100000D03*
D21*
X112647500Y-103600000D03*
%TD*%
D22*
%TO.C,R6*%
X142510000Y-97730000D03*
X139585000Y-97730000D03*
%TD*%
D28*
%TO.C,R2*%
X106680000Y-47062500D03*
X106680000Y-44137500D03*
%TD*%
D29*
%TO.C,Y1*%
X166193223Y-77228858D03*
X167748858Y-75673223D03*
X166546777Y-74471142D03*
X164991142Y-76026777D03*
%TD*%
D30*
%TO.C,U2*%
X122207500Y-71180000D03*
D31*
X122207500Y-73720000D03*
X122207500Y-76260000D03*
%TD*%
D18*
%TO.C,IRQ1*%
X177630000Y-65250000D03*
X180170000Y-65250000D03*
%TD*%
D28*
%TO.C,R15*%
X199530000Y-88777500D03*
X199530000Y-85852500D03*
%TD*%
D32*
%TO.C,L2*%
X192925000Y-79385000D03*
X196075000Y-79385000D03*
%TD*%
D33*
%TO.C,JP1*%
X172760000Y-85590000D03*
D31*
X170220000Y-85590000D03*
X167680000Y-85590000D03*
%TD*%
D34*
%TO.C,R14*%
X164800000Y-93800000D03*
X164800000Y-96725000D03*
%TD*%
D35*
%TO.C,C5*%
X119307500Y-102315000D03*
X121207500Y-102315000D03*
%TD*%
D18*
%TO.C,SCK-SDA1*%
X169750000Y-67600000D03*
X167447978Y-66526550D03*
%TD*%
D36*
%TO.C,U6*%
X151137500Y-73730000D03*
X151137500Y-74530000D03*
X151137500Y-75330000D03*
X151137500Y-76130000D03*
X151137500Y-76930000D03*
X151137500Y-77730000D03*
X151137500Y-78530000D03*
X151137500Y-79330000D03*
X151137500Y-80130000D03*
X151137500Y-80930000D03*
X151137500Y-81730000D03*
D37*
X152800000Y-83392500D03*
X153600000Y-83392500D03*
X154400000Y-83392500D03*
X155200000Y-83392500D03*
X156000000Y-83392500D03*
X156800000Y-83392500D03*
X157600000Y-83392500D03*
X158400000Y-83392500D03*
X159200000Y-83392500D03*
X160000000Y-83392500D03*
X160800000Y-83392500D03*
D36*
X162462500Y-81730000D03*
X162462500Y-80930000D03*
X162462500Y-80130000D03*
X162462500Y-79330000D03*
X162462500Y-78530000D03*
X162462500Y-77730000D03*
X162462500Y-76930000D03*
X162462500Y-76130000D03*
X162462500Y-75330000D03*
X162462500Y-74530000D03*
X162462500Y-73730000D03*
D37*
X160800000Y-72067500D03*
X160000000Y-72067500D03*
X159200000Y-72067500D03*
X158400000Y-72067500D03*
X157600000Y-72067500D03*
X156800000Y-72067500D03*
X156000000Y-72067500D03*
X155200000Y-72067500D03*
X154400000Y-72067500D03*
X153600000Y-72067500D03*
X152800000Y-72067500D03*
%TD*%
D38*
%TO.C,SW1*%
X150125000Y-95190000D03*
X147915000Y-95190000D03*
D39*
X149015000Y-97340000D03*
X149015000Y-100340000D03*
D38*
X150125000Y-102490000D03*
X147915000Y-102490000D03*
D40*
X150775000Y-96590000D03*
X150775000Y-99590000D03*
X150775000Y-101090000D03*
%TD*%
D41*
%TO.C,C13*%
X185880000Y-71980000D03*
X185880000Y-70080000D03*
%TD*%
D16*
%TO.C,SW3*%
X138300000Y-94340000D03*
X138300000Y-86340000D03*
X142800000Y-94340000D03*
X142800000Y-86340000D03*
%TD*%
D18*
%TO.C,PWM1*%
X138530000Y-64620000D03*
X138530000Y-67160000D03*
%TD*%
D42*
%TO.C,J4*%
X154190000Y-100484669D03*
D43*
X156960000Y-100484669D03*
X159730000Y-100484669D03*
X162500000Y-100484669D03*
X165270000Y-100484669D03*
X155575000Y-103024669D03*
X158345000Y-103024669D03*
X161115000Y-103024669D03*
X163885000Y-103024669D03*
%TD*%
D33*
%TO.C,J1*%
X177710000Y-85600000D03*
D31*
X177710000Y-83060000D03*
X177710000Y-80520000D03*
X177710000Y-77980000D03*
X177710000Y-75440000D03*
%TD*%
D18*
%TO.C,VCC1*%
X110920000Y-109400000D03*
X113460000Y-109400000D03*
%TD*%
D22*
%TO.C,R4*%
X150957500Y-92330000D03*
X148032500Y-92330000D03*
%TD*%
%TO.C,R13*%
X149350000Y-71940000D03*
X146425000Y-71940000D03*
%TD*%
D44*
%TO.C,U8*%
X185735000Y-83061394D03*
X186235000Y-83061394D03*
X186735000Y-83061394D03*
X187235000Y-83061394D03*
X187735000Y-83061394D03*
X188235000Y-83061394D03*
X188735000Y-83061394D03*
X189235000Y-83061394D03*
D45*
X189935000Y-82361394D03*
X189935000Y-81861394D03*
X189935000Y-81361394D03*
X189935000Y-80861394D03*
X189935000Y-80361394D03*
X189935000Y-79861394D03*
X189935000Y-79361394D03*
X189935000Y-78861394D03*
D44*
X189235000Y-78161394D03*
X188735000Y-78161394D03*
X188235000Y-78161394D03*
X187735000Y-78161394D03*
X187235000Y-78161394D03*
X186735000Y-78161394D03*
X186235000Y-78161394D03*
X185735000Y-78161394D03*
D45*
X185035000Y-78861394D03*
X185035000Y-79361394D03*
X185035000Y-79861394D03*
X185035000Y-80361394D03*
X185035000Y-80861394D03*
X185035000Y-81361394D03*
X185035000Y-81861394D03*
X185035000Y-82361394D03*
D46*
X187485000Y-80611394D03*
%TD*%
D16*
%TO.C,SW2*%
X142770000Y-101730000D03*
X142770000Y-109730000D03*
X138270000Y-101730000D03*
X138270000Y-109730000D03*
%TD*%
D47*
%TO.C,D12*%
X144347500Y-43910000D03*
D15*
X144347500Y-59150000D03*
%TD*%
D18*
%TO.C,V_OUT_DCDC1*%
X124680000Y-93490000D03*
X124680000Y-96030000D03*
%TD*%
D23*
%TO.C,C32*%
X192050000Y-66841394D03*
X189100000Y-66841394D03*
%TD*%
D14*
%TO.C,D5*%
X192167500Y-59660000D03*
D15*
X192167500Y-44420000D03*
%TD*%
D35*
%TO.C,C14*%
X169790000Y-74390000D03*
X171690000Y-74390000D03*
%TD*%
D48*
%TO.C,FB1*%
X114669583Y-62810000D03*
X116794583Y-62810000D03*
%TD*%
D13*
%TO.C,U5*%
X162410000Y-88840000D03*
X161140000Y-88840000D03*
X159870000Y-88840000D03*
X158600000Y-88840000D03*
X158600000Y-93790000D03*
X159870000Y-93790000D03*
X161140000Y-93790000D03*
X162410000Y-93790000D03*
%TD*%
D22*
%TO.C,R11*%
X161932500Y-96780000D03*
X159007500Y-96780000D03*
%TD*%
D42*
%TO.C,J3*%
X186580000Y-100494669D03*
D43*
X189350000Y-100494669D03*
X192120000Y-100494669D03*
X194890000Y-100494669D03*
X197660000Y-100494669D03*
X187965000Y-103034669D03*
X190735000Y-103034669D03*
X193505000Y-103034669D03*
X196275000Y-103034669D03*
%TD*%
D14*
%TO.C,D7*%
X163867500Y-59240000D03*
D15*
X163867500Y-44000000D03*
%TD*%
D34*
%TO.C,R16*%
X199450000Y-73542500D03*
X199450000Y-76467500D03*
%TD*%
D27*
%TO.C,C22*%
X120530000Y-93260000D03*
D21*
X120530000Y-94760000D03*
%TD*%
D49*
%TO.C,REF\u002A\u002A*%
X105797500Y-109450000D03*
%TD*%
D28*
%TO.C,R3*%
X109620000Y-47062500D03*
X109620000Y-44137500D03*
%TD*%
D47*
%TO.C,D11*%
X157567500Y-43950000D03*
D15*
X157567500Y-59190000D03*
%TD*%
D22*
%TO.C,R8*%
X133402500Y-98390000D03*
X130477500Y-98390000D03*
%TD*%
D18*
%TO.C,MISO-MOSI1*%
X175552884Y-69898273D03*
X173250862Y-68824823D03*
%TD*%
D50*
%TO.C,C23*%
X124247500Y-84660000D03*
X124247500Y-86560000D03*
%TD*%
D51*
%TO.C,D2*%
X110720000Y-85580000D03*
D52*
X113260000Y-85580000D03*
%TD*%
D14*
%TO.C,D8*%
X150287500Y-59150000D03*
D15*
X150287500Y-43910000D03*
%TD*%
D47*
%TO.C,D10*%
X172437500Y-44260000D03*
D15*
X172437500Y-59500000D03*
%TD*%
D53*
%TO.C,R1*%
X121405000Y-42865000D03*
D54*
X119500000Y-42420000D03*
D55*
X122040000Y-49280000D03*
D53*
X120135000Y-48835000D03*
%TD*%
D56*
%TO.C,Y2*%
X185822614Y-74922512D03*
X187060051Y-76159949D03*
X188050000Y-75170000D03*
X186812563Y-73932563D03*
%TD*%
D22*
%TO.C,R5*%
X150977500Y-105350000D03*
X148052500Y-105350000D03*
%TD*%
D20*
%TO.C,C24*%
X119437500Y-85560000D03*
D21*
X117937500Y-85560000D03*
%TD*%
D18*
%TO.C,INA1*%
X146293884Y-66246117D03*
X144497833Y-68042168D03*
%TD*%
D49*
%TO.C,REF\u002A\u002A*%
X105727500Y-33630000D03*
%TD*%
D26*
%TO.C,C27*%
X196070000Y-85800000D03*
X196070000Y-88750000D03*
%TD*%
D57*
%TO.C,U1*%
X133577500Y-58500000D03*
D52*
X128497500Y-57230000D03*
X133577500Y-55960000D03*
X128497500Y-54690000D03*
X133577500Y-53420000D03*
X128497500Y-52150000D03*
X133577500Y-50880000D03*
X128497500Y-49610000D03*
X133577500Y-48340000D03*
X128497500Y-47070000D03*
X133577500Y-45800000D03*
X128497500Y-44530000D03*
X133577500Y-43260000D03*
X128497500Y-41990000D03*
X133577500Y-40720000D03*
%TD*%
D22*
%TO.C,R10*%
X133142500Y-82617500D03*
X130217500Y-82617500D03*
%TD*%
D58*
%TO.C,C17*%
X148375000Y-77982500D03*
X146825000Y-77982500D03*
%TD*%
D22*
%TO.C,R9*%
X133182500Y-67150000D03*
X130257500Y-67150000D03*
%TD*%
D59*
%TO.C,P1*%
X151267500Y-34970000D03*
D60*
X156347500Y-34970000D03*
%TD*%
D34*
%TO.C,R18*%
X191340000Y-85812500D03*
X191340000Y-88737500D03*
%TD*%
D16*
%TO.C,SW4*%
X129080000Y-110010000D03*
X129080000Y-102010000D03*
X133580000Y-110010000D03*
X133580000Y-102010000D03*
%TD*%
D32*
%TO.C,L1*%
X192940000Y-82255000D03*
X196090000Y-82255000D03*
%TD*%
D23*
%TO.C,C31*%
X193200000Y-92585000D03*
X190250000Y-92585000D03*
%TD*%
D18*
%TO.C,UART_TX1*%
X181650000Y-95280000D03*
X179853949Y-93483949D03*
%TD*%
D27*
%TO.C,C3*%
X114677500Y-79210000D03*
D21*
X114677500Y-80710000D03*
%TD*%
D18*
%TO.C,AN0*%
X118110000Y-55750000D03*
X120650000Y-55750000D03*
%TD*%
D19*
%TO.C,C30*%
X196185000Y-69201394D03*
X196185000Y-66251394D03*
%TD*%
D49*
%TO.C,REF\u002A\u002A*%
X203470000Y-33780000D03*
%TD*%
%TO.C,REF\u002A\u002A*%
X204030000Y-109330000D03*
%TD*%
D28*
%TO.C,R17*%
X192150000Y-71902500D03*
X192150000Y-68977500D03*
%TD*%
D47*
%TO.C,D9*%
X186317500Y-44325000D03*
D15*
X186317500Y-59565000D03*
%TD*%
D35*
%TO.C,C16*%
X169860000Y-77070000D03*
X171760000Y-77070000D03*
%TD*%
D61*
%TO.C,D1*%
X107717500Y-81750000D03*
D62*
X107717500Y-69050000D03*
%TD*%
D63*
%TO.C,L3*%
X205130000Y-82425000D03*
X205130000Y-79275000D03*
%TD*%
D41*
%TO.C,C1*%
X113977500Y-75080000D03*
X113977500Y-73180000D03*
%TD*%
D18*
%TO.C,VBAT1*%
X121230000Y-109420000D03*
X118690000Y-109420000D03*
%TD*%
D16*
%TO.C,SW5*%
X129030000Y-78747500D03*
X129030000Y-70747500D03*
X133530000Y-78747500D03*
X133530000Y-70747500D03*
%TD*%
D59*
%TO.C,P2*%
X180007500Y-35010000D03*
D60*
X185087500Y-35010000D03*
%TD*%
D18*
%TO.C,OUTSHUNT1*%
X116190000Y-40110000D03*
X116190000Y-37570000D03*
%TD*%
D41*
%TO.C,C15*%
X188380000Y-72010000D03*
X188380000Y-70110000D03*
%TD*%
M02*
