%TF.GenerationSoftware,KiCad,Pcbnew,10.0.1*%
%TF.CreationDate,2026-04-26T21:41:19+02:00*%
%TF.ProjectId,requena.abanto_projecte_vidres,72657175-656e-4612-9e61-62616e746f5f,rev?*%
%TF.SameCoordinates,Original*%
%TF.FileFunction,Soldermask,Bot*%
%TF.FilePolarity,Negative*%
%FSLAX46Y46*%
G04 Gerber Fmt 4.6, Leading zero omitted, Abs format (unit mm)*
G04 Created by KiCad (PCBNEW 10.0.1) date 2026-04-26 21:41:19*
%MOMM*%
%LPD*%
G01*
G04 APERTURE LIST*
G04 Aperture macros list*
%AMRoundRect*
0 Rectangle with rounded corners*
0 $1 Rounding radius*
0 $2 $3 $4 $5 $6 $7 $8 $9 X,Y pos of 4 corners*
0 Add a 4 corners polygon primitive as box body*
4,1,4,$2,$3,$4,$5,$6,$7,$8,$9,$2,$3,0*
0 Add four circle primitives for the rounded corners*
1,1,$1+$1,$2,$3*
1,1,$1+$1,$4,$5*
1,1,$1+$1,$6,$7*
1,1,$1+$1,$8,$9*
0 Add four rect primitives between the rounded corners*
20,1,$1+$1,$2,$3,$4,$5,0*
20,1,$1+$1,$4,$5,$6,$7,0*
20,1,$1+$1,$6,$7,$8,$9,0*
20,1,$1+$1,$8,$9,$2,$3,0*%
G04 Aperture macros list end*
%ADD10RoundRect,0.250000X0.750000X-0.750000X0.750000X0.750000X-0.750000X0.750000X-0.750000X-0.750000X0*%
%ADD11C,2.000000*%
%ADD12RoundRect,0.250000X1.350000X-1.350000X1.350000X1.350000X-1.350000X1.350000X-1.350000X-1.350000X0*%
%ADD13C,3.200000*%
%ADD14C,1.400000*%
%ADD15RoundRect,0.250000X0.350000X0.350000X-0.350000X0.350000X-0.350000X-0.350000X0.350000X-0.350000X0*%
%ADD16C,1.200000*%
%ADD17RoundRect,0.250000X-0.350000X0.350000X-0.350000X-0.350000X0.350000X-0.350000X0.350000X0.350000X0*%
%ADD18RoundRect,0.250000X-0.600000X-0.600000X0.600000X-0.600000X0.600000X0.600000X-0.600000X0.600000X0*%
%ADD19C,1.700000*%
%ADD20R,1.700000X1.700000*%
%ADD21C,0.900000*%
%ADD22R,1.600000X1.600000*%
%ADD23C,1.600000*%
%ADD24RoundRect,0.250000X-1.350000X1.350000X-1.350000X-1.350000X1.350000X-1.350000X1.350000X1.350000X0*%
%ADD25C,2.100000*%
%ADD26RoundRect,0.250000X-0.650000X-0.650000X0.650000X-0.650000X0.650000X0.650000X-0.650000X0.650000X0*%
%ADD27C,1.800000*%
%ADD28R,1.800000X1.800000*%
%ADD29RoundRect,0.102000X-0.825000X-0.825000X0.825000X-0.825000X0.825000X0.825000X-0.825000X0.825000X0*%
%ADD30C,1.854000*%
%ADD31RoundRect,0.249999X0.850001X-0.850001X0.850001X0.850001X-0.850001X0.850001X-0.850001X-0.850001X0*%
%ADD32C,2.200000*%
%ADD33RoundRect,0.225000X0.225000X0.250000X-0.225000X0.250000X-0.225000X-0.250000X0.225000X-0.250000X0*%
%ADD34RoundRect,0.225000X0.250000X-0.225000X0.250000X0.225000X-0.250000X0.225000X-0.250000X-0.225000X0*%
%ADD35RoundRect,0.225000X-0.250000X0.225000X-0.250000X-0.225000X0.250000X-0.225000X0.250000X0.225000X0*%
%ADD36RoundRect,0.225000X-0.225000X-0.250000X0.225000X-0.250000X0.225000X0.250000X-0.225000X0.250000X0*%
G04 APERTURE END LIST*
D10*
%TO.C,J5*%
X106515000Y-64935000D03*
D11*
X106515000Y-62395000D03*
%TD*%
D12*
%TO.C,D6*%
X178377500Y-59560000D03*
D13*
X178377500Y-44320000D03*
%TD*%
D14*
%TO.C,UART_RX1*%
X177090000Y-97160000D03*
X178886051Y-98956051D03*
%TD*%
D15*
%TO.C,C2*%
X138120100Y-49480000D03*
D16*
X136620100Y-49480000D03*
%TD*%
D14*
%TO.C,INB1*%
X151146117Y-67273884D03*
X152942168Y-65477833D03*
%TD*%
D17*
%TO.C,C4*%
X112647500Y-102100000D03*
D16*
X112647500Y-103600000D03*
%TD*%
D18*
%TO.C,U2*%
X122207500Y-71180000D03*
D19*
X122207500Y-73720000D03*
X122207500Y-76260000D03*
%TD*%
D14*
%TO.C,IRQ1*%
X177630000Y-65250000D03*
X180170000Y-65250000D03*
%TD*%
D20*
%TO.C,JP1*%
X172760000Y-85590000D03*
D19*
X170220000Y-85590000D03*
X167680000Y-85590000D03*
%TD*%
D14*
%TO.C,SCK-SDA1*%
X169750000Y-67600000D03*
X167447978Y-66526550D03*
%TD*%
D21*
%TO.C,SW1*%
X149015000Y-97340000D03*
X149015000Y-100340000D03*
%TD*%
D14*
%TO.C,PWM1*%
X138530000Y-64620000D03*
X138530000Y-67160000D03*
%TD*%
D22*
%TO.C,J4*%
X154190000Y-100484669D03*
D23*
X156960000Y-100484669D03*
X159730000Y-100484669D03*
X162500000Y-100484669D03*
X165270000Y-100484669D03*
X155575000Y-103024669D03*
X158345000Y-103024669D03*
X161115000Y-103024669D03*
X163885000Y-103024669D03*
%TD*%
D20*
%TO.C,J1*%
X177710000Y-85600000D03*
D19*
X177710000Y-83060000D03*
X177710000Y-80520000D03*
X177710000Y-77980000D03*
X177710000Y-75440000D03*
%TD*%
D14*
%TO.C,VCC1*%
X110920000Y-109400000D03*
X113460000Y-109400000D03*
%TD*%
D24*
%TO.C,D12*%
X144347500Y-43910000D03*
D13*
X144347500Y-59150000D03*
%TD*%
D14*
%TO.C,V_OUT_DCDC1*%
X124680000Y-93490000D03*
X124680000Y-96030000D03*
%TD*%
D12*
%TO.C,D5*%
X192167500Y-59660000D03*
D13*
X192167500Y-44420000D03*
%TD*%
D22*
%TO.C,J3*%
X186580000Y-100494669D03*
D23*
X189350000Y-100494669D03*
X192120000Y-100494669D03*
X194890000Y-100494669D03*
X197660000Y-100494669D03*
X187965000Y-103034669D03*
X190735000Y-103034669D03*
X193505000Y-103034669D03*
X196275000Y-103034669D03*
%TD*%
D12*
%TO.C,D7*%
X163867500Y-59240000D03*
D13*
X163867500Y-44000000D03*
%TD*%
D17*
%TO.C,C22*%
X120530000Y-93260000D03*
D16*
X120530000Y-94760000D03*
%TD*%
D25*
%TO.C,REF\u002A\u002A*%
X105797500Y-109450000D03*
%TD*%
D24*
%TO.C,D11*%
X157567500Y-43950000D03*
D13*
X157567500Y-59190000D03*
%TD*%
D14*
%TO.C,MISO-MOSI1*%
X175552884Y-69898273D03*
X173250862Y-68824823D03*
%TD*%
D26*
%TO.C,D2*%
X110720000Y-85580000D03*
D27*
X113260000Y-85580000D03*
%TD*%
D12*
%TO.C,D8*%
X150287500Y-59150000D03*
D13*
X150287500Y-43910000D03*
%TD*%
D24*
%TO.C,D10*%
X172437500Y-44260000D03*
D13*
X172437500Y-59500000D03*
%TD*%
D15*
%TO.C,C24*%
X119437500Y-85560000D03*
D16*
X117937500Y-85560000D03*
%TD*%
D14*
%TO.C,INA1*%
X146293884Y-66246117D03*
X144497833Y-68042168D03*
%TD*%
D25*
%TO.C,REF\u002A\u002A*%
X105727500Y-33630000D03*
%TD*%
D28*
%TO.C,U1*%
X133577500Y-58500000D03*
D27*
X128497500Y-57230000D03*
X133577500Y-55960000D03*
X128497500Y-54690000D03*
X133577500Y-53420000D03*
X128497500Y-52150000D03*
X133577500Y-50880000D03*
X128497500Y-49610000D03*
X133577500Y-48340000D03*
X128497500Y-47070000D03*
X133577500Y-45800000D03*
X128497500Y-44530000D03*
X133577500Y-43260000D03*
X128497500Y-41990000D03*
X133577500Y-40720000D03*
%TD*%
D29*
%TO.C,P1*%
X151267500Y-34970000D03*
D30*
X156347500Y-34970000D03*
%TD*%
D14*
%TO.C,UART_TX1*%
X181650000Y-95280000D03*
X179853949Y-93483949D03*
%TD*%
D17*
%TO.C,C3*%
X114677500Y-79210000D03*
D16*
X114677500Y-80710000D03*
%TD*%
D14*
%TO.C,AN0*%
X118110000Y-55750000D03*
X120650000Y-55750000D03*
%TD*%
D25*
%TO.C,REF\u002A\u002A*%
X203470000Y-33780000D03*
%TD*%
%TO.C,REF\u002A\u002A*%
X204030000Y-109330000D03*
%TD*%
D24*
%TO.C,D9*%
X186317500Y-44325000D03*
D13*
X186317500Y-59565000D03*
%TD*%
D31*
%TO.C,D1*%
X107717500Y-81750000D03*
D32*
X107717500Y-69050000D03*
%TD*%
D14*
%TO.C,VBAT1*%
X121230000Y-109420000D03*
X118690000Y-109420000D03*
%TD*%
D29*
%TO.C,P2*%
X180007500Y-35010000D03*
D30*
X185087500Y-35010000D03*
%TD*%
D14*
%TO.C,OUTSHUNT1*%
X116190000Y-40110000D03*
X116190000Y-37570000D03*
%TD*%
D33*
%TO.C,C25*%
X126780000Y-54755000D03*
X125230000Y-54755000D03*
%TD*%
D34*
%TO.C,C36*%
X188750000Y-87545000D03*
X188750000Y-85995000D03*
%TD*%
D35*
%TO.C,C35*%
X194531963Y-79198001D03*
X194531963Y-80748001D03*
%TD*%
D36*
%TO.C,C21*%
X159085000Y-91360000D03*
X160635000Y-91360000D03*
%TD*%
D34*
%TO.C,C34*%
X194500000Y-84315000D03*
X194500000Y-82765000D03*
%TD*%
D35*
%TO.C,C6*%
X117080000Y-49400000D03*
X117080000Y-50950000D03*
%TD*%
D34*
%TO.C,C37*%
X185937500Y-87520000D03*
X185937500Y-85970000D03*
%TD*%
D36*
%TO.C,C18*%
X155635000Y-80250000D03*
X157185000Y-80250000D03*
%TD*%
D33*
%TO.C,C19*%
X157475000Y-75410000D03*
X155925000Y-75410000D03*
%TD*%
M02*
